<svg width="50" height="50" viewBox="0 0 50 50" fill="none" xmlns="http://www.w3.org/2000/svg">
<path d="M24.9998 31.8229C24.7221 31.8229 24.4526 31.7708 24.1915 31.6666C23.9304 31.5625 23.7137 31.4236 23.5415 31.25L13.9582 21.6666C13.5762 21.2847 13.3853 20.7986 13.3853 20.2083C13.3853 19.618 13.5762 19.1319 13.9582 18.75C14.3401 18.368 14.8262 18.1771 15.4165 18.1771C16.0068 18.1771 16.4929 18.368 16.8748 18.75L24.9998 26.875L33.1248 18.75C33.5068 18.368 33.9929 18.1771 34.5832 18.1771C35.1734 18.1771 35.6596 18.368 36.0415 18.75C36.4234 19.1319 36.6144 19.618 36.6144 20.2083C36.6144 20.7986 36.4234 21.2847 36.0415 21.6666L26.4582 31.25C26.2498 31.4583 26.0241 31.6062 25.7811 31.6937C25.538 31.7812 25.2776 31.8243 24.9998 31.8229Z" fill="black"/>
</svg>
