<svg width="50" height="50" viewBox="0 0 50 50" fill="none" xmlns="http://www.w3.org/2000/svg">
<path d="M13.9582 30.625C13.5762 30.243 13.3853 29.7569 13.3853 29.1666C13.3853 28.5764 13.5762 28.0903 13.9582 27.7083L23.5415 18.125C23.7498 17.9166 23.9755 17.7694 24.2186 17.6833C24.4616 17.5972 24.7221 17.5535 24.9998 17.5521C25.2776 17.5521 25.5471 17.6041 25.8082 17.7083C26.0693 17.8125 26.2859 17.9514 26.4582 18.125L36.0415 27.7083C36.4234 28.0903 36.6144 28.5764 36.6144 29.1666C36.6144 29.7569 36.4234 30.243 36.0415 30.625C35.6596 31.0069 35.1734 31.1979 34.5832 31.1979C33.9929 31.1979 33.5068 31.0069 33.1248 30.625L24.9998 22.5L16.8748 30.625C16.4929 31.0069 16.0068 31.1979 15.4165 31.1979C14.8262 31.1979 14.3401 31.0069 13.9582 30.625Z" fill="black"/>
</svg>
